<svg xmlns="http://www.w3.org/2000/svg" viewBox="0 0 72 72" xmlns:v="https://vecta.io/nano"><path fill="none" stroke="#e8e6d9" stroke-width=".5" stroke-miterlimit="10" d="M69.7 71H2.3c-.7 0-1.3-.6-1.3-1.3V2.3C1 1.6 1.6 1 2.3 1h67.4c.7 0 1.3.6 1.3 1.3v67.4c0 .7-.6 1.3-1.3 1.3z"/><path fill="#427bbf" d="M36.1 59.8c-.4 0-.8-.4-.8-.8v-1.8c0-.4.4-.8.8-.8s.8.4.8.8V59c0 .5-.4.8-.8.8z"/><path fill="#f58320" d="M48 37.1h-.6c-.2 0-.4-.2-.4-.4s.2-.4.4-.4l2.3-.1a.55.55 0 0 1 .5.3c.1.2 0 .4-.2.5-.7.1-1.3.1-2 .1zm-2.9-.4H45c-.8-.2-1.6-.6-2.3-1-.2-.1-.3-.4-.1-.6.1-.2.4-.3.6-.1.7.4 1.4.7 2.1.9a.55.55 0 0 1 .3.5c-.2.2-.3.3-.5.3zm7.2-.3c-.2 0-.3-.1-.4-.3s0-.4.2-.5c.7-.3 1.4-.6 2.1-1.1a.47.47 0 0 1 .6.1.47.47 0 0 1-.1.6c-.7.5-1.4.9-2.2 1.2h-.2zM41 34.3c-.1 0-.2 0-.3-.1-.6-.6-1.1-1.3-1.4-2.1-.1-.2 0-.4.2-.5s.4 0 .5.2c.3.7.8 1.3 1.3 1.9.2.2.1.4 0 .6H41zm15.2-.7c-.1 0-.2 0-.3-.1-.2-.1-.2-.4-.1-.6.5-.6.9-1.3 1.1-2 .1-.2.3-.3.5-.2s.3.3.2.5c-.3.8-.7 1.5-1.3 2.2.1.2 0 .2-.1.2zm1.6-4.5c-.2 0-.4-.2-.4-.4v-.1c0-.8-.1-1.5-.2-2.2a.55.55 0 0 1 .3-.5.55.55 0 0 1 .5.3c.1.7.2 1.5.2 2.3v.1c0 .4-.2.5-.4.5zm-.8-4.7c-.2 0-.3-.1-.4-.3-.3-.7-.6-1.4-1.1-2.1a.47.47 0 0 1 .1-.6.47.47 0 0 1 .6.1c.5.8.8 1.5 1.1 2.2.1.2 0 .4-.2.5 0 .2 0 .2-.1.2zm-2.5-4.2c-.1 0-.2-.1-.3-.2-.6-.8-1-1.4-1.3-2.2-.1-.2 0-.4.2-.5s.4 0 .5.2c.3.6.6 1.2 1.2 2a.47.47 0 0 1-.1.6c0 .1-.1.1-.2.1z"/><path d="M56 20.9l-1.6-.3C55.7 14.4 57 10 57 10l1.5.5c.1 0-1.3 4.3-2.5 10.4zM52 28c0 .9-.7 1.7-1.7 1.7-.9 0-1.7-.7-1.7-1.7s.7-1.7 1.7-1.7c1 .1 1.7.8 1.7 1.7z" fill="#427bbf"/><path fill="#f58320" d="M25 37.1c-.2 0-.4-.2-.4-.4s.1-.4.4-.4c.8-.1 1.6-.2 2.3-.5.2-.1.4 0 .5.3.1.2 0 .4-.3.5l-2.5.5zm-2.4 0c-.9-.1-1.7-.3-2.5-.5a.55.55 0 0 1-.3-.5c0-.2.3-.3.5-.3.7.2 1.5.4 2.3.5.2 0 .4.2.4.4s-.2.4-.4.4zM18 35.6c-.1 0-.1 0-.2-.1-.8-.4-1.4-1-2-1.6-.2-.2-.1-.4 0-.6s.4-.1.6 0c.5.5 1.1 1 1.8 1.4.2.1.3.4.1.6 0 .2-.1.3-.3.3zm11.6-.1c-.1 0-.3-.1-.3-.2a.47.47 0 0 1 .1-.6c.6-.4 1.2-1 1.7-1.6.1-.2.4-.2.6-.1s.2.4.1.6c-.5.7-1.1 1.2-1.9 1.7-.2.2-.3.2-.3.2zm-14.8-3.4c-.2 0-.3-.1-.4-.2-.4-.8-.6-1.6-.7-2.5 0-.2.1-.4.4-.4.2 0 .4.1.4.4.1.8.3 1.5.6 2.2.1.2 0 .4-.2.5h-.1zm-.6-4.8c-.3 0-.4-.2-.4-.4.1-.9.3-1.7.5-2.4a.55.55 0 0 1 .5-.3.55.55 0 0 1 .3.5c-.2.7-.4 1.5-.5 2.3 0 .2-.2.3-.4.3zm1.5-4.5c-.1 0-.1 0-.2-.1-.2-.1-.3-.4-.2-.6.4-.8.9-1.4 1.4-2.1.1-.2.4-.2.6-.1s.2.4.1.6c-.5.6-.9 1.3-1.3 2-.2.2-.3.3-.4.3zm2.7-4.1h-.2c-.2-.1-.3-.3-.2-.5.4-.7.6-1.4.6-2.1 0-.2.2-.4.4-.4s.4.2.4.4c0 .9-.2 1.7-.7 2.5-.1 0-.2.1-.3.1z"/><g fill="#427bbf"><path d="M15.9 20.9c-1.3-6.1-2.6-10.4-2.6-10.5l1.5-.5s1.3 4.4 2.7 10.6l-1.6.4zM24 28c0 .9-.7 1.7-1.7 1.7-.9 0-1.7-.7-1.7-1.7s.7-1.7 1.7-1.7c.9.1 1.7.8 1.7 1.7zm33.2 34c-3.9-4-5.8-11.1-5.5-21.1h1.6c-.3 9.6 1.4 16.3 5 20L57.2 62zm-42.5 0l-1.2-1.1c3.6-3.7 5.3-10.4 5-20h1.6c.3 10-1.5 17.1-5.4 21.1z"/><path d="M21.7 42c-4.4 0-8.6-2.3-10.4-5.9-3.1-6.1 1.2-11.4 3.8-14.6.6-.7 1.1-1.3 1.4-1.9 0 0 1.3-2 1.6-4.2.1-.4.5-.8.9-.7s.8.5.7.9c-.3 2.6-1.8 4.8-1.8 4.9-.4.6-.9 1.2-1.5 2-2.6 3.2-6.2 7.7-3.6 12.9 1.8 3.6 6.4 5.6 10.9 4.8 4.3-.7 7.3-3.9 7.9-8.4.1-.4.5-.8.9-.7s.8.5.7.9c-.7 5.3-4.2 8.9-9.2 9.8-.9.1-1.6.2-2.3.2zm28.6 0c-.7 0-1.4-.1-2.1-.2-5.1-.8-8.5-4.5-9.2-9.8-.1-.4.3-.8.7-.9s.9.3.9.7c.6 4.5 3.6 7.6 7.9 8.4 4.5.8 9.1-1.3 10.9-4.8 2.6-5.2-1-9.6-3.6-12.9-.6-.8-1.1-1.4-1.5-2-.1-.1-1.5-2.3-1.8-4.9-.1-.4.3-.8.7-.9s.8.3.9.7c.3 2.2 1.6 4.2 1.6 4.2.3.5.8 1.1 1.4 1.9 2.6 3.2 6.9 8.5 3.8 14.6-2 3.6-6.2 5.9-10.6 5.9z"/></g></svg>