<svg xmlns="http://www.w3.org/2000/svg" viewBox="0 0 72 72" xmlns:v="https://vecta.io/nano"><path fill="none" stroke="#e8e6d9" stroke-width=".5" stroke-miterlimit="10" d="M69.7 71H2.3c-.7 0-1.3-.6-1.3-1.3V2.3C1 1.6 1.6 1 2.3 1h67.4c.7 0 1.3.6 1.3 1.3v67.4c0 .7-.6 1.3-1.3 1.3z"/><path d="M60.4 64.9c-.3 0-.6-.2-.8-.5-.7-1.6-1.6-3.1-2.5-4.7-2.2-3.7-4.7-7.9-4.9-14.2v-.4h-.4c-3.6-.2-6.4-1.8-8.4-4.8-1.7-2.7-2.5-6-3.2-8.7-.4-1.6-.7-3.2-1.2-4.1-.1-.2-.1-.4-.1-.6.1-.2.2-.4.4-.5.1-.1.3-.1.4-.1.3 0 .6.2.7.5.6 1.1.9 2.6 1.4 4.5.6 2.7 1.4 5.8 2.9 8.2 1.8 2.7 4.2 4 7.7 4 3.2 0 5.4-1 6.8-3.1 3.1-4.6 1.2-13.7-.8-18.7-1.8-4.6-3.5-7.9-3.5-7.9-.2-.4 0-.9.4-1.1.1-.1.2-.1.4-.1.3 0 .6.2.8.5.1.2.7 1.5 1.7 3.7l.7 1.6.2-1.7c.4-4.4.4-8.8.4-8.8 0-.5.4-.8.8-.8s.8.4.8.8c0 .3 0 7.7-1 13.3v.1.1c1.9 4.9 4.2 14.6.5 20-1.4 2.1-3.6 3.4-6.5 3.7h-.4v.4c.2 5.8 2.5 9.6 4.7 13.3 1 1.6 1.9 3.2 2.6 4.9.1.2.1.4 0 .6s-.2.4-.4.5c0 .1-.1.1-.2.1zM53 40.7c-.6 0-1-.5-1-1 0-.6.5-1 1-1 .6 0 1 .5 1 1a.94.94 0 0 1-1 1zM11.6 64.9c-.1 0-.2 0-.3-.1-.2-.1-.4-.3-.5-.5s-.1-.4 0-.6c.7-1.7 1.6-3.2 2.6-4.9 2.2-3.7 4.5-7.5 4.7-13.4V45h-.4c-2.9-.3-5-1.6-6.5-3.7-1.7-2.5-2.3-6-1.8-10.5.3-3.1 1.2-6.6 2.3-9.5v-.1-.1c-1-5.6-1-13-1-13.3 0-.5.4-.8.8-.8.5 0 .8.4.8.8 0 0 0 4.4.4 8.8l.2 1.7.7-1.6c.9-2.1 1.6-3.5 1.7-3.7.1-.3.4-.5.8-.5.1 0 .3 0 .4.1.4.2.6.7.4 1.1 0 0-1.6 3.4-3.5 7.9-2 5-3.9 14.1-.8 18.7 1.4 2.1 3.6 3.1 6.8 3.1 3.5 0 5.9-1.3 7.7-4 1.6-2.4 2.3-5.5 2.9-8.2.4-1.8.8-3.4 1.4-4.5.1-.3.4-.5.7-.5.1 0 .3 0 .4.1.2.1.3.3.4.5s0 .4-.1.6c-.5.9-.8 2.4-1.2 4.1-.6 2.7-1.4 6.1-3.2 8.7-1.9 3-4.8 4.6-8.4 4.8h-.4v.4c-.2 6.3-2.7 10.5-4.9 14.2-.9 1.6-1.8 3.1-2.5 4.7.1.4-.2.6-.6.6zM19 40.7c-.6 0-1-.5-1-1 0-.6.5-1 1-1 .6 0 1 .5 1 1 0 .6-.5 1-1 1zm16.5 21.9c-.1 0-.2 0-.3-.1s-.2-.2-.2-.3 0-.3.1-.4c.5-.7.7-1.2.6-1.7-.1-.4-.3-.7-.5-.7-.2-.1-.3-.4-.1-.7.1-.2.3-.2.4-.2s.2 0 .3.1a2.54 2.54 0 0 0 .9 1.4c.2.8-.1 1.6-.8 2.5-.1.1-.2.1-.4.1z" fill="#427bbf"/><path d="M48 35.6h-.2c-.2-.1-.4-.1-.6-.2-.1-.1-.2-.1-.3-.3-.1-.1-.1-.3 0-.4a.55.55 0 0 1 .5-.3h.2c.2.1.4.1.6.2.3.1.4.4.3.7a.55.55 0 0 1-.5.3zm-3.7-2.4c-.2 0-.3-.1-.4-.2-.1-.2-.3-.4-.4-.6s-.1-.6.2-.7c.1 0 .2-.1.3-.1.2 0 .4.1.4.3.1.2.2.3.3.5.2.2.1.6-.1.7-.1 0-.2.1-.3.1zm14.3-2.1h-.2c-.3-.1-.4-.4-.3-.7.1-.2.2-.4.2-.6a.55.55 0 0 1 .5-.3h.2l.3.3c.1.1.1.3 0 .4l-.3.6c0 .2-.2.3-.4.3zM56 34.6c-.2 0-.3-.1-.4-.2-.2-.2-.1-.6.1-.7s.3-.2.5-.4c.1-.1.2-.1.3-.1a.76.76 0 0 1 .4.2c.2.2.2.5 0 .7s-.4.3-.5.4c-.2.1-.3.1-.4.1zM51.8 36a.47.47 0 0 1-.5-.5c0-.1 0-.3.1-.4s.2-.2.4-.2.4 0 .6-.1c.3 0 .5.2.6.4 0 .1 0 .3-.1.4s-.2.2-.3.2c-.3.2-.6.2-.8.2h0zm-31.7 0c-.2 0-.4 0-.7-.1-.1 0-.3-.1-.3-.2-.1-.1-.1-.2-.1-.4 0-.3.3-.5.5-.5.3 0 .5.1.7.1a.76.76 0 0 1 .4.2c.1.1.1.2.1.4-.1.3-.3.5-.6.5h0zm3.8-.4c-.2 0-.4-.1-.5-.4s.1-.6.3-.7.4-.1.6-.2h.2a.55.55 0 0 1 .5.3c.1.1 0 .3 0 .4l-.3.3c-.2.1-.4.2-.6.2-.1.1-.1.1-.2.1zm-8-1c-.1 0-.2 0-.3-.1-.2-.1-.4-.3-.5-.4s-.2-.2-.2-.4 0-.3.1-.4.2-.2.4-.2c.1 0 .3 0 .3.1.1.1.3.3.5.4.2.2.3.5.1.7-.1.3-.2.3-.4.3zm-2.7-3.5a.55.55 0 0 1-.5-.3l-.3-.6c-.1-.1-.1-.3 0-.4l.3-.3h.2a.55.55 0 0 1 .5.3c.1.2.2.4.2.6.1.3 0 .6-.3.7.1 0 0 0-.1 0zm14.4 2.1c-.1 0-.2 0-.3-.1-.2-.2-.3-.5-.1-.7.1-.2.2-.3.3-.5s.3-.3.4-.3.2 0 .3.1c.2.1.3.5.2.7s-.3.4-.4.6c-.1.1-.2.2-.4.2zm-5.3-4.8c-.3 0-.6-.2-.6-.6v-7.5l-1.8 1.8c-.1.1-.2.2-.4.2a.76.76 0 0 1-.4-.2c-.1-.1-.2-.2-.2-.4a.76.76 0 0 1 .2-.4l3.2-3.2 3.2 3.2a.61.61 0 0 1 0 .8c-.1.1-.2.2-.4.2a.76.76 0 0 1-.4-.2l-1.8-1.8v7.5c-.1.3-.3.6-.6.6zm26.7 0c-.3 0-.6-.2-.6-.6v-7.5l-1.8 1.8c-.1.1-.2.2-.4.2a.76.76 0 0 1-.4-.2c-.1-.1-.2-.2-.2-.4a.76.76 0 0 1 .2-.4l3.2-3.2 3.2 3.2a.61.61 0 0 1 0 .8c-.1.1-.2.2-.4.2a.76.76 0 0 1-.4-.2l-1.8-1.8v7.5c0 .3-.2.6-.6.6z" fill="#f58320"/></svg>