<svg xmlns="http://www.w3.org/2000/svg" viewBox="0 0 72 72" xmlns:v="https://vecta.io/nano"><path fill="none" stroke="#e8e6d9" stroke-width=".5" stroke-miterlimit="10" d="M69.7 71H2.3c-.7 0-1.3-.6-1.3-1.3V2.3C1 1.6 1.6 1 2.3 1h67.4c.7 0 1.3.6 1.3 1.3v67.4c0 .7-.6 1.3-1.3 1.3z"/><path d="M27.1 8.2v2.3.1 13.9.1.1.1.1.1.1.1.1.1.1.1.1.1.1c-.1.4-.3.8-.5 1.3 0 0 0 .1-.1.1l-.6 1.2c0 .1-.1.2-.1.3-.1.2-.2.3-.2.5-.1.1-.1.2-.2.4-.9 1.8-1.9 3.9-1.9 6.3v.1.1c.1 2.4 1 4.3 2 6.1 0 0 0 .1.1.1.1.1.1.2.2.3.4.7.7 1.4 1 2.1 0 0 0 .1.1.1 0 0 0 .1.1.1v.1.1.1.1.1.1.1.1.1.1.1.1.1.1.1.1.1.1.1.1.1.1 16.3a.65.65 0 0 0 .6.6.65.65 0 0 0 .6-.6v-16c-.1-2.1-1-3.9-1.9-5.6-.8-1.4-1.6-2.9-1.8-4.7V37v-.2-.2-.2-.2-.2c0-2.1.8-3.9 1.7-5.6.1-.2.2-.4.3-.5.1-.3.3-.6.4-.8.2-.5.5-.9.6-1.4l1-2c1.2-2.2 2.5-4.7 2.5-7.3s-1.1-4.8-2.1-6.7l-.6-1.2V8.2a.65.65 0 0 0-.6-.6c-.3 0-.6.2-.6.6zm2.7 10.1c0 1.8-.8 3.7-1.6 5.4V12.9c.9 1.6 1.6 3.4 1.6 5.4zm-4.9 45.5V47.5c-.1-2.2-1.5-4-2.9-5.7-1.4-1.8-2.9-3.6-2.9-5.8 0-2.3 1.6-4.2 3-6.1 1.4-1.8 2.8-3.5 2.8-5.4V8.2a.65.65 0 0 0-.6-.6.65.65 0 0 0-.6.6v16.3c0 1.6-1.2 3.1-2.5 4.7-.8 1-1.6 2-2.2 3.1-.7 1.3-1 2.5-1 3.7s.3 2.4 1 3.6c.6 1.1 1.4 2 2.1 2.9 1.3 1.6 2.6 3.2 2.7 5v16.3a.65.65 0 0 0 .6.6c.3 0 .5-.2.5-.6zM47 8.2v16.3c0 2 1.4 3.6 2.8 5.4 1.5 1.9 3.1 3.8 3.1 6.1 0 2.2-1.5 4-3 5.8-1.4 1.7-2.9 3.5-3 5.7v16.3a.65.65 0 0 0 .6.6.65.65 0 0 0 .6-.6V47.5c0-1.8 1.3-3.3 2.7-5 .8-.9 1.6-1.9 2.2-2.9.7-1.2 1-2.4 1-3.6s-.4-2.4-1.1-3.7c-.6-1.1-1.4-2.1-2.2-3.1-1.3-1.6-2.6-3.2-2.6-4.7V8.2a.65.65 0 0 0-.6-.6c-.3 0-.5.2-.5.6zm-3.3 0v2.2l-.6 1.2c-1 1.9-2.1 4.1-2.1 6.7s1.3 5.1 2.4 7.3l1.1 2.3c0 .1.1.1.1.2.3.7.7 1.4 1 2 .9 1.8 1.9 3.6 1.9 5.9s-1 4.3-2 6.2c-.9 1.8-1.8 3.4-1.8 5.3v16.3a.65.65 0 0 0 .6.6.65.65 0 0 0 .6-.6V47.5c0-1.6.8-3.2 1.7-4.8 1-1.9 2.1-4.1 2.1-6.7s-1-4.5-2.1-6.4c-.9-1.7-1.7-3.2-1.8-5.1v-14-2.3a.65.65 0 0 0-.6-.6c-.3 0-.5.2-.5.6zm-1.6 10.1c0-2 .8-3.8 1.6-5.4v10.9c-.9-1.8-1.6-3.7-1.6-5.5z" fill="#4881c3"/><path fill="#7ca4d6" d="M41 38.6a.61.61 0 0 0 0 .8.61.61 0 0 0 .8 0l3.2-3a.76.76 0 0 0 .2-.4.76.76 0 0 0-.2-.4l-3.2-3a.61.61 0 0 0-.8 0 .61.61 0 0 0 0 .8l2.2 2H28.7l2.2-2a.61.61 0 0 0 0-.8.61.61 0 0 0-.8 0l-3.2 3a.76.76 0 0 0-.2.4.76.76 0 0 0 .2.4l3.2 3a.61.61 0 0 0 .8 0 .76.76 0 0 0 .2-.4c0-.2-.1-.3-.2-.4l-2.2-2h14.5l-2.2 2z"/><path d="M38.1 58.5c-1.2 0-2.1 1-2.1 2.1 0 1.2 1 2.1 2.1 2.1s2.1-1 2.1-2.1c.1-1.2-.9-2.1-2.1-2.1zm0 3.1a.94.94 0 0 1-1-1 .94.94 0 0 1 1-1 .94.94 0 0 1 1 1 .94.94 0 0 1-1 1zm1.3-9.4c1.2 0 2.1-1 2.1-2.1 0-1.2-1-2.1-2.1-2.1-1.2 0-2.1 1-2.1 2.1s.9 2.1 2.1 2.1zm0-3.1a.94.94 0 0 1 1 1 .94.94 0 0 1-1 1 .94.94 0 0 1-1-1c0-.6.5-1 1-1zm-6.3 5c-.9 0-1.7.8-1.7 1.7s.8 1.7 1.7 1.7 1.7-.8 1.7-1.7c0-1-.8-1.7-1.7-1.7zm0 2.2a.47.47 0 0 1-.5-.5.47.47 0 0 1 .5-.5.47.47 0 0 1 .5.5c0 .2-.2.5-.5.5zm1.2-9.4c0-1.2-1-2.1-2.1-2.1-1.2 0-2.1 1-2.1 2.1 0 1.2 1 2.1 2.1 2.1 1.1.1 2.1-.9 2.1-2.1zm-3.1 0a.94.94 0 0 1 1-1 .94.94 0 0 1 1 1 .94.94 0 0 1-1 1 .94.94 0 0 1-1-1zm5.1-7.3a1.54 1.54 0 0 0-1.5 1.5 1.54 1.54 0 0 0 1.5 1.5 1.54 1.54 0 0 0 1.5-1.5 1.54 1.54 0 0 0-1.5-1.5zm0 1.9c-.2 0-.4-.2-.4-.4s.2-.4.4-.4.4.2.4.4-.2.4-.4.4zm2.1-11.1c0-1.2-1-2.1-2.1-2.1-1.2 0-2.1 1-2.1 2.1 0 1.2 1 2.1 2.1 2.1 1.2.1 2.1-.9 2.1-2.1zm-3.1 0a.94.94 0 0 1 1-1 .94.94 0 0 1 1 1 .94.94 0 0 1-1 1 .94.94 0 0 1-1-1zm-.5-5.9a1.58 1.58 0 0 0-1.6-1.6 1.58 1.58 0 0 0-1.6 1.6 1.58 1.58 0 0 0 1.6 1.6 1.58 1.58 0 0 0 1.6-1.6zm-2.1 0a.47.47 0 0 1 .5-.5.47.47 0 0 1 .5.5.47.47 0 0 1-.5.5c-.3 0-.5-.3-.5-.5zm4.8-7.5c-1.2 0-2.1 1-2.1 2.1 0 1.2 1 2.1 2.1 2.1s2.1-1 2.1-2.1c.1-1.2-.9-2.1-2.1-2.1zm0 3.1a.94.94 0 0 1-1-1 .94.94 0 0 1 1-1 .94.94 0 0 1 1 1c0 .5-.4 1-1 1zm-6.1-7.6c0 1.2 1 2.1 2.1 2.1 1.2 0 2.1-1 2.1-2.1 0-1.2-1-2.1-2.1-2.1-1.2-.1-2.1.9-2.1 2.1zm3.1 0a.94.94 0 0 1-1 1 .94.94 0 0 1-1-1 .94.94 0 0 1 1-1c.5 0 1 .4 1 1zm4.5-.6c.8 0 1.4-.6 1.4-1.4S39.7 9 39 9s-1.4.6-1.4 1.4c-.1.8.6 1.5 1.4 1.5zm-.3-1.5c0-.1.1-.3.3-.3s.3.1.3.3c0 .1-.1.3-.3.3s-.3-.1-.3-.3z" fill="#f1873b"/></svg>