<svg xmlns="http://www.w3.org/2000/svg" viewBox="0 0 72 72" xmlns:v="https://vecta.io/nano"><path fill="none" stroke="#e8e6d9" stroke-width=".5" stroke-miterlimit="10" d="M69.7 71H2.3c-.7 0-1.3-.6-1.3-1.3V2.3C1 1.6 1.6 1 2.3 1h67.4c.7 0 1.3.6 1.3 1.3v67.4c0 .7-.6 1.3-1.3 1.3z"/><g fill="#427bbf"><path d="M40 61.6h-7.8c-1.4 0-2.5-1-2.7-2.3l-2.6-17.4c-2.4-2.9-3.7-6.7-3.7-10.7 0-8.4 5.8-15.3 12.9-15.3S49 22.8 49 31.2c0 4-1.3 7.8-3.7 10.7l-2.6 17.4c-.3 1.3-1.4 2.3-2.7 2.3zm-3.9-44.4c-6.4 0-11.5 6.3-11.5 14 0 3.8 1.2 7.4 3.5 10 .1.1.1.2.2.3l2.6 17.6c.1.7.7 1.2 1.4 1.2H40c.7 0 1.3-.5 1.4-1.2L44 41.5c0-.1.1-.2.2-.3 2.3-2.7 3.5-6.2 3.5-10-.1-7.8-5.3-14-11.6-14zm21.3 20c-3 0-5.3-1.6-5.3-3.7s2.3-3.7 5.3-3.7 5.3 1.6 5.3 3.7-2.3 3.7-5.3 3.7zm0-6.2c-2.1 0-4 1.1-4 2.4s1.8 2.4 4 2.4 4-1.1 4-2.4c-.1-1.3-1.9-2.4-4-2.4z"/><path d="M52.8 34.1h-.2c-.1 0-3.2-.8-4.8-3-.2-.3-.2-.7.1-.9s.7-.2.9.1c1.3 1.8 4.1 2.5 4.1 2.5.4.1.6.4.5.8-.1.3-.3.5-.6.5zm9-.9c-.3 0-.5-.2-.6-.4-.1-.3 0-.7.4-.9.5-.2 3.1-1.4 2.5-5.5-.2-1.4-1-2.5-2.4-3.3-3.1-1.6-8.4-.9-14.3 2.1-.3.2-.7 0-.9-.3s0-.7.3-.9c8.7-4.3 13.5-3.1 15.6-2.1 1.7.9 2.8 2.4 3.1 4.2.8 5.3-2.9 6.8-3.3 7-.2.1-.3.1-.4.1zm-47.2 4c-3 0-5.3-1.6-5.3-3.7s2.3-3.7 5.3-3.7 5.3 1.6 5.3 3.7-2.3 3.7-5.3 3.7zm0-6.2c-2.1 0-4 1.1-4 2.4s1.8 2.4 4 2.4 4-1.1 4-2.4-1.8-2.4-4-2.4z"/><path d="M19.2 34.1c-.3 0-.6-.2-.6-.5-.1-.4.1-.7.5-.8 0 0 3-.7 4.2-2.7.2-.3.6-.4.9-.2s.4.6.2.9c-1.5 2.4-4.9 3.2-5 3.2-.1.1-.1.1-.2.1zm-9-.9H10c-.7-.3-4-1.9-3.3-7 .5-3.1 3.3-5.1 7.3-5.2.4 0 .7.3.7.6 0 .4-.3.7-.6.7-3.4.1-5.7 1.6-6 4.1-.6 4.1 1.9 5.3 2.4 5.5.3.1.5.5.4.9-.2.2-.5.4-.7.4z"/><path d="M25 25.3c-.1 0-.2 0-.3-.1-2.3-1.1-4.4-1.9-6.4-2.4-.4-.1-.6-.4-.5-.8s.4-.6.8-.5c2.1.5 4.3 1.3 6.7 2.5.3.2.5.6.3.9-.1.2-.3.4-.6.4zm14.7 36.3h-7.2a.68.68 0 0 1-.7-.7v-6.8c0-1.3 1.1-2.4 2.4-2.4h0V44c-1.5-3.8-4.4-10.6-6.9-15.2-.3-.5-.2-1.2.2-1.7s1-.7 1.6-.5c4.2 1.3 9.4 1.3 13.7 0 .6-.2 1.2 0 1.6.5s.4 1.2.1 1.7h0c-2.5 4.3-5.3 11.2-6.7 15v7.8c1.3 0 2.4 1.1 2.4 2.4v6.8c.1.5-.2.8-.5.8zm-6.6-1.3H39v-6.2a1.11 1.11 0 0 0-1.1-1.1h-.7a.68.68 0 0 1-.7-.7v-8.6-.2c1.5-3.8 4.3-10.9 6.9-15.3h0c.1-.1 0-.2 0-.2s-.1-.1-.2-.1c-4.5 1.4-10.1 1.4-14.5 0-.1 0-.2 0-.2.1 0 0-.1.1 0 .2 2.6 4.7 5.5 11.7 7 15.5v.2 8.5a.68.68 0 0 1-.7.7h-.7a1.11 1.11 0 0 0-1.1 1.1v6.1z"/></g><path d="M16.2 24.5c-1.6 0-2.9-1.3-2.9-2.9s1.3-2.9 2.9-2.9 2.9 1.3 2.9 2.9-1.2 2.9-2.9 2.9zm0-4.5a1.58 1.58 0 0 0-1.6 1.6 1.58 1.58 0 0 0 1.6 1.6 1.58 1.58 0 0 0 1.6-1.6c.1-.9-.7-1.6-1.6-1.6zm2.9-1.8c-.2 0-.3-.1-.4-.2-.3-.2-.3-.7-.1-.9l3.5-4.2c.2-.3.7-.3.9-.1.3.2.3.7.1.9L19.6 18c-.1.1-.3.2-.5.2zm-5.7 0c-.2 0-.4-.1-.5-.2l-3.5-4.2c-.2-.3-.2-.7.1-.9s.7-.2.9.1l3.5 4.2c.2.3.2.7-.1.9-.1.1-.3.1-.4.1zm2.8-.9a.68.68 0 0 1-.7-.7V11a.68.68 0 0 1 .7-.7.68.68 0 0 1 .7.7v5.6a.68.68 0 0 1-.7.7z" fill="#f58320"/></svg>