<svg xmlns="http://www.w3.org/2000/svg" viewBox="0 0 72 72" xmlns:v="https://vecta.io/nano"><path fill="none" stroke="#e8e6d9" stroke-width=".5" stroke-miterlimit="10" d="M69.7 71H2.3c-.7 0-1.3-.6-1.3-1.3V2.3C1 1.6 1.6 1 2.3 1h67.4c.7 0 1.3.6 1.3 1.3v67.4c0 .7-.6 1.3-1.3 1.3z"/><g fill="#427bbf"><path d="M28.3 49.2c-.3 0-.6-.2-.7-.6l-.7-4.7c-2.4-2.9-3.6-6.6-3.6-10.6 0-8.4 5.7-15.2 12.7-15.2a10.21 10.21 0 0 1 3.8.7c.3.1.5.5.4.9-.2.3-.6.4-.9.3a9.6 9.6 0 0 0-3.3-.6c-6.3 0-11.4 6.2-11.4 13.8 0 3.8 1.2 7.3 3.5 9.9.1.1.1.2.2.3l.7 4.9c0 .5-.3.8-.7.9h0zm11.6 14.2h-7.7c-1.3 0-2.5-1-2.7-2.3l-1-6.9c-.1-.4.2-.7.6-.8.4 0 .7.2.8.6l1 6.9c.1.7.7 1.2 1.3 1.2h7.7c.7 0 1.2-.5 1.3-1.2l2.6-17.4c0-.1.1-.2.2-.3 2.2-2.6 3.5-6.1 3.5-9.9s-1.3-7.6-3.7-10.2c-.2-.3-.2-.7.1-.9s.7-.2.9.1c2.6 2.9 4 6.9 4 11.1 0 4-1.3 7.8-3.6 10.6l-2.6 17.2c-.3 1.2-1.4 2.2-2.7 2.2z"/><path d="M56.2 36.4c-1.2 0-2.3-.1-3.5-.4-1-.2-4.2-1.2-5.2-2.7-.2-.3-.1-.7.2-.9s.7-.1.9.2c.5.9 2.9 1.8 4.3 2.1 2.8.6 5.9.4 7.9-.6 1.7-.8 3.4-2.7 2.8-5.6-.3-1.4-1.2-2.6-2.6-3.3-1.8-.9-6-1.8-14 2.1-.3.2-.7 0-.9-.3s0-.7.3-.9c6.3-3.1 11.7-3.9 15.2-2.1 1.8.9 2.9 2.4 3.3 4.2.7 3.7-1.5 6.1-3.6 7.1-1.3.7-3.1 1.1-5.1 1.1zm-40.4 0c-1.9 0-3.8-.3-5.2-1-2.1-1-4.3-3.4-3.6-7.1.3-1.8 1.5-3.3 3.3-4.2 3.5-1.8 8.9-1 15.2 2.1.3.2.5.6.3.9s-.6.5-.9.3c-8-3.9-12.2-3-14-2.1-1.4.7-2.3 1.8-2.6 3.3-.5 2.9 1.1 4.8 2.8 5.6 2 .9 5.1 1.2 7.9.6 1.4-.3 3.8-1.3 4.3-2.1.2-.3.6-.4.9-.2s.4.6.2.9c-1 1.5-4.1 2.5-5.2 2.7a19.53 19.53 0 0 1-3.4.3zm23.8 27h-7.1a.68.68 0 0 1-.7-.7V56c0-1.3 1.1-2.4 2.4-2.4h0V46c-1.5-3.7-4.3-10.5-6.8-15-.3-.5-.2-1.2.2-1.7s1-.7 1.6-.5c4.1 1.3 9.3 1.3 13.6 0 .6-.2 1.2 0 1.6.5s.4 1.2.1 1.7c-.8 1.3-1.6 3-2.5 5-.2.3-.5.5-.9.3-.3-.2-.5-.5-.3-.9.9-2 1.8-3.7 2.6-5.1.1-.1 0-.2 0-.2s-.1-.1-.2-.1c-4.5 1.4-10 1.4-14.3 0-.1 0-.2 0-.2.1 0 0-.1.1 0 .2 2.5 4.6 5.4 11.6 6.9 15.3v.2 8.4a.68.68 0 0 1-.7.7h-.7a1.11 1.11 0 0 0-1.1 1.1v6.1h5.8V56a1.11 1.11 0 0 0-1.1-1.1h-.7a.68.68 0 0 1-.7-.7v-8.5-.2c.6-1.7 1.3-3.3 1.9-4.9.1-.3.5-.5.9-.4.3.1.5.5.4.9l-1.9 4.7v7.7c1.3 0 2.4 1.1 2.4 2.4v6.8c.1.4-.2.7-.5.7z"/></g><path d="M48 19.4c-.3 0-.6-.3-.7-.6 0-.4.2-.7.6-.7l5.4-.5c.4 0 .7.2.7.6s-.2.7-.6.7l-5.4.5zm-4.1-4.1c-.4 0-.7-.4-.7-.7l.5-5.4c0-.4.4-.6.7-.6.4 0 .6.4.6.7l-.5 5.4c.1.4-.2.6-.6.6zm2.7 1.5c-.2 0-.3-.1-.5-.2-.3-.3-.3-.7 0-.9l3.9-3.9c.3-.3.7-.3.9 0 .3.3.3.7 0 .9L47 16.6a.76.76 0 0 1-.4.2zM20.2 60.7c-.2 0-.3-.1-.4-.2-.3-.2-.3-.7-.1-.9l3.5-4.2c.2-.3.7-.3.9-.1.3.2.3.7.1.9l-3.5 4.2c-.1.3-.3.3-.5.3zm2.5-9.8c-.1 0-.2 0-.3-.1l-4.7-2.7c-.3-.2-.4-.6-.2-.9s.6-.4.9-.2l4.7 2.7c.3.2.4.6.2.9-.1.2-.3.3-.6.3zm-5.8 4c-.3 0-.6-.2-.7-.5-.1-.4.2-.7.5-.8l5.5-1c.4-.1.7.2.8.5.1.4-.2.7-.5.8l-5.5 1h-.1zm11.8-.1c-1.9 0-3.5-1.6-3.5-3.5s1.6-3.5 3.5-3.5 3.5 1.6 3.5 3.5-1.6 3.5-3.5 3.5zm0-5.6a2.22 2.22 0 0 0-2.2 2.2 2.22 2.22 0 0 0 2.2 2.2 2.22 2.22 0 0 0 2.2-2.2 2.22 2.22 0 0 0-2.2-2.2zm11-7.7c-1.9 0-3.5-1.6-3.5-3.5s1.6-3.5 3.5-3.5 3.5 1.6 3.5 3.5c0 2-1.6 3.5-3.5 3.5zm0-5.6a2.22 2.22 0 0 0-2.2 2.2 2.22 2.22 0 0 0 2.2 2.2 2.22 2.22 0 0 0 2.2-2.2c-.1-1.2-1-2.2-2.2-2.2zm2.1-11.2c-1.9 0-3.5-1.6-3.5-3.5s1.6-3.5 3.5-3.5 3.5 1.6 3.5 3.5-1.6 3.5-3.5 3.5zm0-5.7a2.22 2.22 0 0 0-2.2 2.2 2.22 2.22 0 0 0 2.2 2.2 2.22 2.22 0 0 0 2.2-2.2c-.1-1.2-1-2.2-2.2-2.2z" fill="#f58320"/></svg>