<svg xmlns="http://www.w3.org/2000/svg" viewBox="0 0 72 72" xmlns:v="https://vecta.io/nano"><path fill="none" stroke="#e8e6d9" stroke-width=".5" stroke-miterlimit="10" d="M69.7 71H2.3c-.7 0-1.3-.6-1.3-1.3V2.3C1 1.6 1.6 1 2.3 1h67.4c.7 0 1.3.6 1.3 1.3v67.4c0 .7-.6 1.3-1.3 1.3z"/><g fill="#427bbf"><path d="M29.2 60c-5.7-1.8-9.4-5.3-9.7-5.6-2.1-2-3.4-3.7-3.6-4-6.2-7.3-6.6-32.8-6.6-33.1 0-1.8.3-3.7.8-5.6.2-.7.9-1 1.6-.8s1 .9.9 1.6c-.4 1.7-.7 3.3-.6 4.9 0 4 1.1 25.7 6 31.5v.1s1.2 1.7 3.4 3.7h0s3.4 3.4 8.7 5c2 .6 3.9.9 5.9.9 5 0 9.9-2 14.7-6 1-.9 2-2 3-3.3l.3-.4c3.1-4.5 6.2-25.9 6.2-28.8 0-2.1-.2-4.2-.6-6.2-.1-.7.3-1.4 1-1.5.7-.2 1.4.3 1.5.9.4 2.2.6 4.5.6 6.8 0 1.5-.8 7.8-2 14.3-1.5 8.4-3.1 13.8-4.7 16l-.1.1-.3.4c-1.1 1.3-2.1 2.6-3.3 3.6-4 3.4-8.3 5.5-12.6 6.2a24.33 24.33 0 0 1-3.8.3c-2.2.1-4.5-.3-6.7-1zm13.4-11.2c-5.9-3.6-11.3-1.3-13.5 0-.6.3-1.4.2-1.8-.3s-.3-1.3.3-1.7c1-.6 2.6-1.5 4.7-2 2.9-.8 7.3-1 11.9 2 .6.4.7 1.2.3 1.7-.5.6-1.3.7-1.9.3zm-11.5-12c-.5-.5-.3-1.3.2-1.7h0c.6-.4 1.3-.3 1.8.2.9.9 1.8 1.4 2.6 1.4 1 0 2-.7 2.7-1.4.5-.5 1.3-.6 1.9-.3h0c.6.4.7 1.2.3 1.7-.9 1-2.6 2.5-4.8 2.5h-.1c-1.6.1-3.2-.7-4.6-2.4z"/><path d="M21.1 24.7c-.6-.3-.8-1.1-.5-1.7.4-.6 1.1-.8 1.8-.5 1.9.7 3.7.4 4.9 0 .7-.2 1.4 0 1.8.6s.2 1.4-.5 1.6c-.9.4-2.3.8-3.9.8-1.1-.1-2.3-.3-3.6-.8zm22 0c-.6-.3-.8-1.1-.5-1.7h0c.4-.6 1.1-.8 1.8-.5 1.9.7 3.7.4 4.9 0 .7-.2 1.4 0 1.8.6s.2 1.4-.5 1.6c-.9.4-2.3.8-3.9.8-1.1-.1-2.3-.3-3.6-.8zm5.6 30h2.5v.2h-2.5z"/></g><path d="M48.2 32.4L46 35.3c-1.2 1.6-3.1 1.3-4.3-.7L39 29.8c-1.1-2-.3-3.2 2-2.6l5.5 1.3c2.1.5 2.9 2.3 1.7 3.9zm.8-16.8l-1.8-2.8c-1-1.5-2.8-1.3-4.2.5l-3.3 4.4c-1.3 1.8-.6 2.9 1.6 2.5l5.4-1.1c2.3-.4 3.3-2 2.3-3.5zM23.5 32.4l2.2 2.9c1.2 1.6 3.1 1.3 4.3-.7l2.8-4.9c1.1-2 .3-3.2-2-2.6l-5.5 1.3c-2.2.6-3 2.4-1.8 4zm-.8-16.8l1.8-2.8c1-1.5 2.8-1.3 4.2.5l3.3 4.4c1.3 1.8.6 2.9-1.6 2.5L25 19.1c-2.3-.4-3.2-2-2.3-3.5z" fill="#f58320"/></svg>