<svg xmlns="http://www.w3.org/2000/svg" viewBox="0 0 72 72" xmlns:v="https://vecta.io/nano"><path fill="none" stroke="#e8e6d9" stroke-width=".5" stroke-miterlimit="10" d="M69.7 71H2.3c-.7 0-1.3-.6-1.3-1.3V2.3C1 1.6 1.6 1 2.3 1h67.4c.7 0 1.3.6 1.3 1.3v67.4c0 .7-.6 1.3-1.3 1.3z"/><path fill="#427bbf" d="M39 40.2c2.2.5 4 .9 4.7 5.6.1.5.5.8.9.8h.1c.5-.1.9-.6.8-1.1-.9-6-3.8-6.7-6.1-7.2-.1 0-.2 0-.2-.1 2.8-3.2 4.4-7.3 4.4-11.9 0-10-8.2-18.2-18.2-18.2S7.3 16.4 7.3 26.4s8.2 18.2 18.2 18.2a17.77 17.77 0 0 0 12.2-4.8c.4.2.9.3 1.3.4zm-3.2-4.4c1.5-1.8 1.7-4.1-.2-6.5.3-.9.4-1.9.4-2.9a10.5 10.5 0 1 0-21 0C15 32.2 19.7 37 25.5 37c1 0 2-.1 2.9-.4 2.2 1.7 4.3 1.7 6 .6.4.8 1 1.4 1.5 1.8-2.8 2.3-6.4 3.8-10.4 3.8-9 0-16.3-7.3-16.3-16.3s7.3-16.3 16.3-16.3 16.3 7.3 16.3 16.3c0 4.3-1.7 8.3-4.5 11.2-.6-.4-1.1-1-1.5-1.9zm-9.1-.9c-.4.1-.8.1-1.2.1-4.7 0-8.6-3.9-8.6-8.6s3.9-8.6 8.6-8.6 8.6 3.9 8.6 8.6c0 .4-.1.8-.1 1.2-3-2.4-6.8-2.8-8.4-1.2-1.7 1.7-1.3 5.5 1.1 8.5zm-.2-4.6c-.2-1.2 0-2.1.4-2.4.3-.3.9-.4 1.5-.4 1.3 0 3.3.6 5 2.3 3 3 1.2 4.7.6 5.3-.7.7-1.4 1-2.2 1-1 0-2-.6-3.1-1.7-1.1-1.2-1.9-2.7-2.2-4.1z"/><path d="M42.1 57.3c-1.6-.2-2.7-.4-3.4-1.4 1.4-1.8 1.5-4.3-1-6.8-2.8-2.8-6.8-3.3-8.5-1.7-1.6 1.6-1.1 5.7 1.7 8.5 2.4 2.4 4.6 2.5 6.4 1.3 1.2 1.5 3 1.8 4.5 2 2.1.3 3.8.5 4.7 3.8.1.4.5.7.9.7h.2c.5-.1.8-.7.7-1.2-1-4.5-3.9-4.8-6.2-5.2zm-5.2-2.2c-.6.6-1.2.9-1.9.9-.8 0-1.8-.5-2.7-1.5-1-1-1.7-2.4-2-3.7-.2-1.1 0-1.8.3-2.1.2-.2.6-.4 1.3-.4 1.2 0 3 .5 4.5 2.1.9.9 1.5 1.9 1.5 2.7s-.3 1.4-1 2zm17.6-16c1.2 2.1 2.9 2.5 4.3 2.8 1.8.4 3.2.7 4 4.6.1.5.5.8.9.8h.2c.5-.1.9-.6.8-1.1-1-5.1-3.5-5.7-5.4-6.1-1.4-.3-2.5-.6-3.3-2.2 1.5-1.8 1.6-4.3-1-6.9-2.8-2.8-6.8-3.3-8.5-1.7-1.6 1.6-1.1 5.7 1.7 8.5 2.3 2.3 4.5 2.4 6.3 1.3zm-6.7-8.5c.2-.2.6-.4 1.3-.4 1.2 0 3 .5 4.5 2.1.9.9 1.5 1.9 1.5 2.7 0 .7-.3 1.3-.9 1.9s-1.2.9-1.9.9c-.8 0-1.8-.5-2.7-1.5-1-1-1.7-2.4-2-3.7-.2-1 0-1.7.2-2zm16.9 31.9c-1.3-3.5-3.4-4.1-5-4.6-1.3-.4-2.4-.7-3.2-2.5 1.4-1.7 1.5-4-1-6.5-2.7-2.7-6.5-3.2-8-1.6-1.5 1.5-1.1 5.4 1.6 8 2.2 2.2 4.3 2.3 5.9 1.3 1.2 2.2 2.9 2.6 4.2 3 1.5.4 2.7.8 3.7 3.4.1.4.5.6.9.6.1 0 .2 0 .3-.1.5 0 .7-.5.6-1zm-10.1-7.9c-.6.6-1.1.8-1.7.8-1 0-1.9-.7-2.5-1.4-2.1-2.1-2.2-4.8-1.6-5.3.2-.2.5-.3 1.2-.3 1.1 0 2.8.5 4.2 1.9 2 2.2 1.2 3.5.4 4.3z" fill="#f58320"/><g fill="#427bbf"><circle cx="24.5" cy="21.6" r="1.9"/><circle cx="20.7" cy="25.5" r="1.9"/></g></svg>