<svg xmlns="http://www.w3.org/2000/svg" viewBox="0 0 72 72" xmlns:v="https://vecta.io/nano"><path fill="none" stroke="#e8e6d9" stroke-width=".5" stroke-miterlimit="10" d="M69.7 71H2.3c-.7 0-1.3-.6-1.3-1.3V2.3C1 1.6 1.6 1 2.3 1h67.4c.7 0 1.3.6 1.3 1.3v67.4c0 .7-.6 1.3-1.3 1.3z"/><path fill="#427bbf" d="M36 63.8c-2.5 0-4.4-.8-6-2.6l-.2-.2-1.5.3-3.8.8c-.7.1-1.3.1-1.8.1-6.5 0-10.4-3.7-10.4-10 0-2 .6-3.7 1.7-5.3v-.1h0c2.4-3.5 3.4-5.6 4-7.7 3.8-11.9 4.8-30 4.8-30.2 0-.4.4-.7.8-.7.2 0 .4.1.6.3.1.2.2.4.2.6 0 .8-1.1 18.5-4.9 30.6a32.35 32.35 0 0 1-1.3 3.3l-.5 1 1.1-.5a4.67 4.67 0 0 0 1-.5c.1-.1.3-.1.4-.1.3 0 .5.2.7.4.2.4.1.9-.3 1.1-1.4.8-2.6 1.2-3.1 1.3h-.1l-.1.1c-2.5 1.9-3.6 3.9-3.6 6.5 0 5.4 3.2 8.4 8.9 8.4.5 0 1.1 0 1.7-.1.3 0 2-.4 3.6-.7l.6-.1-.3-.6-.4-.6c-1.7-2.5-3.3-4.9-7.4-4.9-.4 0-.8-.3-.8-.8 0-.4.3-.8.8-.8 4.9 0 6.8 2.9 8.7 5.6l1.2 1.8v.1h.1l.3.3v.1h0c1.4 1.6 2.9 2.4 5 2.4 3.7 0 5.1-2.2 6.8-4.6 1.9-2.8 3.8-5.6 8.7-5.6.4 0 .8.3.8.8 0 .4-.3.8-.8.8-4.1 0-5.7 2.4-7.4 4.9l-.8 1.1.8.2c1.7.4 3.4.7 3.7.7.6.1 1.1.1 1.5.1 5.7 0 8.9-3 8.9-8.4 0-1.5-.4-2.9-1.2-4.1-.1-.2-.4-.6-.4-.6-.5-.7-1.2-1.3-1.9-1.9l-.1-.1h-.1c-.5-.1-1.7-.5-3.1-1.3-.4-.2-.5-.7-.3-1.1.1-.2.4-.4.7-.4.1 0 .3 0 .4.1a4.67 4.67 0 0 0 1 .5l1.1.5-.5-1.1c-.5-1-.9-2.1-1.3-3.3-3.8-12.1-5-29.8-5-30.6 0-.2.1-.4.2-.6s.3-.2.5-.3c.5 0 .8.3.8.7 0 .2 1.2 18.3 5 30.2.7 2.1 1.6 4.5 3.9 7.6 1.3 1.6 1.9 3.4 1.9 5.5 0 6.3-3.9 10-10.4 10-.5 0-1 0-1.7-.1-.3 0-1.6-.3-3.9-.8l-1.4-.2-.1.2c-1.7 1.8-3.6 2.6-6 2.6z"/><path d="M43.7 23.2c-.4 0-.7-.3-.8-.7l-.4-3.4c0-.2 0-.4.2-.6a.55.55 0 0 1 .5-.3c.5 0 .8.3.9.7l.4 3.3c0 .5-.3.9-.8 1zm1.3 8.9c-.4 0-.7-.3-.8-.6l-.6-3.4c0-.2 0-.4.1-.6a.55.55 0 0 1 .5-.3h.1c.4 0 .7.3.8.7l.6 3.3c0 .2 0 .4-.1.6a.55.55 0 0 1-.5.3H45zm-2.3-17.9c-.4 0-.7-.3-.8-.7l-.3-3.4c0-.4.3-.8.7-.8.5 0 .8.3.8.7l.3 3.4c.1.4-.2.8-.7.8h0zm4.9 26.5c-.3 0-.5-.1-.6-.3-.7-1-1.2-2.1-1.5-3.3-.1-.2 0-.4.1-.6s.3-.3.5-.4h.2c.4 0 .7.2.8.6.3 1 .7 2 1.3 2.8.1.2.2.4.1.6 0 .2-.2.4-.3.5-.3 0-.4.1-.6.1zM28.5 23.2c-.4-.1-.7-.4-.7-.9l.4-3.3c0-.4.4-.7.8-.7.3 0 .5.1.6.3s.2.4.2.6l-.4 3.4c-.1.3-.4.6-.9.6h0zm.9-9c-.4 0-.7-.4-.7-.8l.2-3.4c0-.4.4-.7.8-.7.5 0 .8.4.8.8 0 .9-.1 2.1-.2 3.4-.1.4-.5.7-.9.7h0zm-5 26.4c-.2 0-.3 0-.4-.1-.4-.2-.4-.7-.2-1.1.6-.9 1.1-1.8 1.4-2.8.1-.3.4-.5.7-.5h.2c.2.1.4.2.5.4s.1.4.1.6a11.99 11.99 0 0 1-1.6 3.2 1.08 1.08 0 0 1-.7.3zm2.8-8.5H27c-.4-.1-.7-.5-.6-.9l.6-3.3c.1-.4.4-.7.8-.7h.1a.55.55 0 0 1 .5.3c.1.2.2.4.1.6l-.6 3.4c0 .4-.3.6-.7.6z" fill="#f58320"/></svg>