<svg xmlns="http://www.w3.org/2000/svg" viewBox="0 0 72 72" xmlns:v="https://vecta.io/nano"><path fill="none" stroke="#e8e6d9" stroke-width=".5" stroke-miterlimit="10" d="M69.7 71H2.3c-.7 0-1.3-.6-1.3-1.3V2.3C1 1.6 1.6 1 2.3 1h67.4c.7 0 1.3.6 1.3 1.3v67.4c0 .7-.6 1.3-1.3 1.3z"/><g fill="#427bbf"><path d="M10.4 27.5c.1 4.5 1.9 9.3 5.5 13.4 1.5 1.7 3.1 3.3 4.7 4.8 3.5 3.4 6.3 7.2 8 11.8.5 1.3 1.3 2.5 2.4 3.4 2.3 2 5.6 2.5 8.2 1.1 1.6-.9 2.7-2.3 3.4-3.9.4-1.1.7-2.2.9-3.3.1-.8.8-1.2 1.4-.9.4.2.7.6.6 1-.4 2.5-1.1 4.8-2.8 6.7-2.1 2.4-4.7 3.4-7.9 3-4.1-.5-6.8-2.9-8.3-6.6-1.6-4.2-4.1-7.8-7.4-10.9-1.8-1.7-3.6-3.4-5.1-5.3-2.9-3.5-4.7-7.4-5.4-11.9-.8-5.5.1-10.6 3.1-15.3 2.3-3.6 5.6-5.8 9.7-6.8 1.8-.5 3.7-.8 5.6-.7 4.8 0 8.7 1.9 11.9 5.5 1.8 2 3.1 4.3 4 6.9.1.2.2.5.1.7-.1.5-.4.9-.9.9s-.9-.2-1.1-.7c-.4-1.3-1-2.6-1.7-3.7-1.6-2.6-3.6-4.8-6.3-6.2-2.4-1.2-4.9-1.5-7.5-1.3-2.1.2-4.1.6-6 1.5-3.4 1.5-5.7 4-7.2 7.3-1.3 2.7-1.9 5.6-1.9 9.5z"/><path d="M34.7 23.3c-.3-1.2-.9-2.2-1.7-3-1.1-1.1-2.5-1.6-4-2-1.6-.4-3.2-.5-4.8 0-2 .6-3.4 2-4.5 3.7-.9 1.5-1.4 3.1-1.8 4.9-.1.7-.6 1.1-1.2 1s-.9-.6-.8-1.3c.3-1.7.8-3.4 1.6-4.9 1-1.9 2.3-3.5 4.2-4.5 1.6-.9 3.3-1.2 5.1-1.1s3.5.5 5.2 1.3c2.7 1.3 4.3 3.5 4.8 6.5.5 2.9 0 5.7-.9 8.5l-.3.8c-.2.5-.8.7-1.3.5s-.8-.8-.6-1.3a18.35 18.35 0 0 0 1.2-4.6 1.39 1.39 0 0 0-.2-1.1c-1.3-2.2-3.3-3.1-6-2.6-1.5.3-2.9.8-4.1 1.8-1.4 1.2-2.1 2.7-2.3 4.4-.2 2.3-.1 4.5.8 6.7.8 2 2.2 3.2 4.3 3.7 3.4.7 5.4 2.9 6.5 6.1.4 1.3 1.3 2.2 2.6 2.7.3.1.6.2 1 .2.6 0 .9-.2 1.2-.7.2-.5.3-1 .3-1.5l-.1-2.3c-.1-.6.3-1.1.9-1.2s1.1.3 1.2.9c.2 1.4.3 2.8-.1 4.2-.4 1.6-1.5 2.5-3 2.6-1.2.1-2.4-.3-3.4-1-1.2-.8-2-1.9-2.5-3.3-.4-1.2-1-2.2-1.9-3.1a5.48 5.48 0 0 0-3.1-1.6c-2.9-.6-4.8-2.4-5.9-5.1-.5-1.3-.8-2.6-.8-4 0-.6-.2-1.3-.2-1.9 0-3.1 1-5.8 3.6-7.7 2.2-1.6 4.6-2.3 7.3-2.1 1.2.1 2.3.5 3.2 1.2.3 0 .4.1.5.2z"/></g><path d="M42.9 41.8c-2.3 0-4.1-1.9-4.1-4.2s1.9-4.1 4.2-4.1 4.1 1.9 4.1 4.2c-.1 2.3-1.9 4.1-4.2 4.1zm1.4-10.9l.6-1.1 2.6-4.6c.2-.3.2-.3-.2-.4l-2.7-.4c-.1 0-.2 0-.3-.1l7.8-7.3-1.5 2.8-1.7 3.1c-.1.3-.1.3.2.3 1.1 0 2.2.1 3.4.2-2.6 2.7-5.4 5.1-8.2 7.5h0zm19.4-4.1l-4.5 3-1 .7c-.2.1-.2.2 0 .4l2.6 1.7c.1 0 .1.1.2.2l-10.7 2.3V35l3.8-2.4 1.8-1.1c.3-.2.2-.2 0-.4l-2.4-1.9 10.2-2.4zM46.2 43h1.3 5c.3 0 .3-.1.2-.4l-1.1-3 9.8 3.3v.1l-2.8.1-3.6.1c-.3 0-.3.1-.2.3l1.3 2.8c0 .1.1.2.1.4-3.3-1.1-6.6-2.3-10-3.7 0 .1 0 .1 0 0z" fill="#f58320"/></svg>