<svg xmlns="http://www.w3.org/2000/svg" viewBox="0 0 72 72" xmlns:v="https://vecta.io/nano"><path fill="none" stroke="#e8e6d9" stroke-width=".5" stroke-miterlimit="10" d="M69.7 71H2.3c-.7 0-1.3-.6-1.3-1.3V2.3C1 1.6 1.6 1 2.3 1h67.4c.7 0 1.3.6 1.3 1.3v67.4c0 .7-.6 1.3-1.3 1.3z"/><g fill="#4881c3"><path d="M61.3 29.9h-1v-1.2h.7c3-1.5 3.6-3 3-6.8-.2-1.3-1.5-2.2-3.8-2.5-2-.3-4.2-.2-5.3-.1h-.3c-2 .1-6.9.1-10.2-2.6-3.1-2.5-5.4-3.3-9.8-3.2-3.2.1-5.3 1.6-7.5 3.2-.7.5-1.5 1.1-2.3 1.6-2.5 1.5-8.1 1.2-11.2 1-.7 0-1.4-.1-1.6-.1-.1 0-2.4.3-3.6 1.8-.7.8-.9 1.9-.7 3.2.2 1.7 1.1 2.9 2.6 3.4 1.2.5 2.3.4 2.3.4l.1 1.2c-.1 0-1.4.1-2.8-.5-1.3-.5-3-1.7-3.4-4.4-.2-1.6.1-3 1-4.1 1.5-1.9 4.1-2.3 4.4-2.3s.8 0 1.8.1c2.7.2 8.3.5 10.5-.8a41.94 41.94 0 0 1 2.2-1.5c2.3-1.7 4.6-3.4 8.2-3.5 4.6-.1 7.3.8 10.6 3.5 1 .8 3.9 2.7 9.3 2.4h.3c2.4-.2 9.6-.6 10.3 3.7.4 2.2.3 3.7-.2 4.9-.6 1.3-1.7 2.3-3.6 3.2h0z"/><path d="M31.5 46.2c-.7 0-1.5-.2-2.4-.7l.6-1.1c1.1.6 1.9.7 2.6.4 1.1-.5 1.4-2.1 1.4-2.4 0-.7.3-10.7-.4-17-.3-2.5-2-4.4-5.1-5.6-2.4-.9-4.7-1.1-4.7-1.1l.1-1.2c.1 0 2.5.2 5.1 1.1 3.5 1.3 5.5 3.6 5.8 6.5.8 6.6.4 17.1.4 17.2h0 0c0 .1-.4 2.4-2.1 3.3-.4.5-.8.6-1.3.6zm9.7 0c-.5 0-.9-.1-1.3-.3-1.7-.9-2-3.2-2.1-3.3h0 0c0-.1-.3-10.6.4-17.2.3-2.9 2.4-5.2 5.8-6.5 2.6-1 5-1.1 5.1-1.1l.1 1.2h0s-2.4.2-4.7 1.1c-3.1 1.2-4.8 3.1-5.1 5.6-.7 6.3-.4 16.3-.4 17 0 .2.3 1.8 1.4 2.4.7.3 1.5.2 2.6-.4l.6 1.1c-.9.2-1.7.4-2.4.4z"/><path d="M34.4 59.8c-.1 0-.3 0-.4-.1-1-.8-2.4-3.4-2.8-4.3-1.1-2.1-1.9-4.1-2.1-5.2-.4-2.4-.2-5.3 0-7.5.1-1-.3-2.8-.9-4.8-.7-2-1.5-3.8-2.3-4.7s-1.4-2.8-1.7-5.5l-.3-4a.65.65 0 0 1 .6-.6.65.65 0 0 1 .6.6 28.84 28.84 0 0 0 .3 3.8c.2 1.7.6 3.9 1.4 4.9.9 1 1.8 2.9 2.5 5.1s1.1 4.1 1 5.3c-.2 2.2-.4 4.9 0 7.2.2 1 1 2.9 2 4.9 1.2 2.2 2.1 3.5 2.5 3.9a.53.53 0 0 1 .1.8c-.2.1-.3.2-.5.2zm3.9 0c-.2 0-.4-.1-.5-.2-.2-.3-.2-.6.1-.8 1-.8 4.1-6.5 4.5-8.7s.2-5 0-7.2c-.1-1.2.3-3.1 1-5.3s1.7-4.1 2.5-5.1 1.2-3.2 1.4-4.9c.3-2 .3-3.8.3-3.8a.65.65 0 0 1 .6-.6.65.65 0 0 1 .6.6c0 .4 0 2.1-.3 4-.3 2.7-.9 4.6-1.7 5.5S45.2 36 44.5 38s-1 3.8-.9 4.8c.2 2.2.4 5.1 0 7.5-.2 1.1-1 3.1-2.1 5.2-.4.8-1.9 3.5-2.8 4.3-.1-.1-.3 0-.4 0z"/></g><path d="M56.8 35.8c-2.5 0-4.6-2.1-4.6-4.6s2.1-4.6 4.6-4.6 4.6 2.1 4.6 4.6-2 4.6-4.6 4.6zm0-8a3.37 3.37 0 0 0-3.4 3.4 3.4 3.4 0 1 0 6.8 0 3.37 3.37 0 0 0-3.4-3.4zm-40.5 6.5c-2.5 0-4.6-2.1-4.6-4.6s2.1-4.6 4.6-4.6 4.6 2.1 4.6 4.6-2.1 4.6-4.6 4.6zm0-8a3.37 3.37 0 0 0-3.4 3.4 3.37 3.37 0 0 0 3.4 3.4 3.37 3.37 0 0 0 3.4-3.4 3.37 3.37 0 0 0-3.4-3.4z" fill="#7ca4d6"/><g fill="#f1873b"><circle cx="27.5" cy="35.3" r="1.5"/><circle cx="29.4" cy="44.1" r="1.5"/><circle cx="44.7" cy="35.1" r="1.5"/><circle cx="43.3" cy="44.1" r="1.5"/></g></svg>